<?xml version="1.0" encoding="UTF-8" standalone="no"?>
<!DOCTYPE svg PUBLIC "-//W3C//DTD SVG 1.1//EN"
 "http://www.w3.org/Graphics/SVG/1.1/DTD/svg11.dtd">
<!-- Generated by graphviz version 5.0.0 (20220707.1540)
 -->
<!-- Title: UmlClassDiagram Pages: 1 -->
<svg width="855pt" height="643pt"
 viewBox="0.00 0.00 855.45 643.00" xmlns="http://www.w3.org/2000/svg" xmlns:xlink="http://www.w3.org/1999/xlink">
<g id="graph0" class="graph" transform="scale(1 1) rotate(0) translate(4 639)">
<title>UmlClassDiagram</title>
<polygon fill="white" stroke="transparent" points="-4,4 -4,-639 851.45,-639 851.45,4 -4,4"/>
<!-- 1 -->
<g id="node1" class="node">
<title>1</title>
<polygon fill="#f2f2f2" stroke="black" points="335.82,-0.5 335.82,-167.7 511.63,-167.7 511.63,-0.5 335.82,-0.5"/>
<text text-anchor="middle" x="423.72" y="-151.1" font-family="Times,serif" font-size="14.00">&lt;&lt;Struct&gt;&gt;</text>
<text text-anchor="middle" x="423.72" y="-134.3" font-family="Times,serif" font-size="14.00">UserStruct</text>
<text text-anchor="middle" x="423.72" y="-117.5" font-family="Times,serif" font-size="14.00">User.sol</text>
<polyline fill="none" stroke="black" points="335.82,-109.3 511.63,-109.3 "/>
<text text-anchor="start" x="343.82" y="-92.7" font-family="Times,serif" font-size="14.00">name: string</text>
<text text-anchor="start" x="343.82" y="-75.9" font-family="Times,serif" font-size="14.00">driver: bool</text>
<text text-anchor="start" x="343.82" y="-59.1" font-family="Times,serif" font-size="14.00">rating: int</text>
<text text-anchor="start" x="343.82" y="-42.3" font-family="Times,serif" font-size="14.00">noOfRatingTransactions: int</text>
<text text-anchor="start" x="343.82" y="-25.5" font-family="Times,serif" font-size="14.00">carType: string</text>
<text text-anchor="start" x="343.82" y="-8.7" font-family="Times,serif" font-size="14.00">licensePlate: string</text>
</g>
<!-- 0 -->
<g id="node3" class="node">
<title>0</title>
<polygon fill="#f2f2f2" stroke="black" points="0,-204.7 0,-447.1 847.45,-447.1 847.45,-204.7 0,-204.7"/>
<text text-anchor="middle" x="423.72" y="-430.5" font-family="Times,serif" font-size="14.00">User</text>
<text text-anchor="middle" x="423.72" y="-413.7" font-family="Times,serif" font-size="14.00">User.sol</text>
<polyline fill="none" stroke="black" points="0,-405.5 847.45,-405.5 "/>
<text text-anchor="start" x="8" y="-388.9" font-family="Times,serif" font-size="14.00">Public:</text>
<text text-anchor="start" x="8" y="-372.1" font-family="Times,serif" font-size="14.00"> &#160;&#160;userData: mapping(address=&gt;UserStruct)</text>
<text text-anchor="start" x="8" y="-355.3" font-family="Times,serif" font-size="14.00"> &#160;&#160;transactionHistory: mapping(address=&gt;TransactionStruct[])</text>
<polyline fill="none" stroke="black" points="0,-347.1 847.45,-347.1 "/>
<text text-anchor="start" x="8" y="-330.5" font-family="Times,serif" font-size="14.00">Public:</text>
<text text-anchor="start" x="8" y="-313.7" font-family="Times,serif" font-size="14.00"> &#160;&#160;&#160;&lt;&lt;payable&gt;&gt; deposit()</text>
<text text-anchor="start" x="8" y="-296.9" font-family="Times,serif" font-size="14.00"> &#160;&#160;&#160;&lt;&lt;payable&gt;&gt; addTransaction(_party: address, _origin: string, _destination: string, _price: uint256, _driver: bool, _rating: int) &lt;&lt;onlyPassenger&gt;&gt;</text>
<text text-anchor="start" x="8" y="-280.1" font-family="Times,serif" font-size="14.00"> &#160;&#160;&#160;&lt;&lt;modifier&gt;&gt; onlyPassenger()</text>
<text text-anchor="start" x="8" y="-263.3" font-family="Times,serif" font-size="14.00"> &#160;&#160;&#160;getUserInfo(_wallet: address): UserStruct</text>
<text text-anchor="start" x="8" y="-246.5" font-family="Times,serif" font-size="14.00"> &#160;&#160;&#160;setUserData(_name: string, _driver: bool)</text>
<text text-anchor="start" x="8" y="-229.7" font-family="Times,serif" font-size="14.00"> &#160;&#160;&#160;setDriverData(_name: string, _driver: bool, _carType: string, _licensePlate: string)</text>
<text text-anchor="start" x="8" y="-212.9" font-family="Times,serif" font-size="14.00"> &#160;&#160;&#160;getAllTransactions(): TransactionStruct[]</text>
</g>
<!-- 1&#45;&gt;0 -->
<g id="edge1" class="edge">
<title>1&#45;&gt;0</title>
<path fill="none" stroke="black" d="M417.27,-167.96C417.14,-175.87 417.05,-184.03 417.01,-192.26"/>
<polygon fill="black" stroke="black" points="417.01,-192.36 420.99,-198.37 416.97,-204.36 412.99,-198.35 417.01,-192.36"/>
</g>
<!-- 2 -->
<g id="node2" class="node">
<title>2</title>
<polygon fill="#f2f2f2" stroke="black" points="365.37,-484.1 365.37,-634.5 482.08,-634.5 482.08,-484.1 365.37,-484.1"/>
<text text-anchor="middle" x="423.72" y="-617.9" font-family="Times,serif" font-size="14.00">&lt;&lt;Struct&gt;&gt;</text>
<text text-anchor="middle" x="423.72" y="-601.1" font-family="Times,serif" font-size="14.00">TransactionStruct</text>
<text text-anchor="middle" x="423.72" y="-584.3" font-family="Times,serif" font-size="14.00">User.sol</text>
<polyline fill="none" stroke="black" points="365.37,-576.1 482.08,-576.1 "/>
<text text-anchor="start" x="373.37" y="-559.5" font-family="Times,serif" font-size="14.00">party: address</text>
<text text-anchor="start" x="373.37" y="-542.7" font-family="Times,serif" font-size="14.00">origin: string</text>
<text text-anchor="start" x="373.37" y="-525.9" font-family="Times,serif" font-size="14.00">destination: string</text>
<text text-anchor="start" x="373.37" y="-509.1" font-family="Times,serif" font-size="14.00">price: uint256</text>
<text text-anchor="start" x="373.37" y="-492.3" font-family="Times,serif" font-size="14.00">driver: bool</text>
</g>
<!-- 2&#45;&gt;0 -->
<g id="edge2" class="edge">
<title>2&#45;&gt;0</title>
<path fill="none" stroke="black" d="M430.07,-484.09C430.23,-476.17 430.34,-467.96 430.41,-459.62"/>
<polygon fill="black" stroke="black" points="430.41,-459.34 426.44,-453.32 430.47,-447.34 434.44,-453.36 430.41,-459.34"/>
</g>
<!-- 0&#45;&gt;1 -->
<g id="edge3" class="edge">
<title>0&#45;&gt;1</title>
<path fill="none" stroke="black" d="M430.47,-204.36C430.47,-195.51 430.42,-186.66 430.32,-178.01"/>
<polygon fill="black" stroke="black" points="433.82,-177.91 430.18,-167.96 426.82,-178.01 433.82,-177.91"/>
</g>
<!-- 0&#45;&gt;2 -->
<g id="edge4" class="edge">
<title>0&#45;&gt;2</title>
<path fill="none" stroke="black" stroke-dasharray="5,2" d="M416.98,-447.34C417,-456.34 417.07,-465.3 417.2,-474.01"/>
<polygon fill="black" stroke="black" points="413.7,-474.15 417.38,-484.09 420.7,-474.03 413.7,-474.15"/>
</g>
</g>
</svg>
